P3
51 51
255
40 44 43 87 65 54 106 70 58 123 75 63 140 82 68 169 97 72 183 103 78 193 104 74 193 102 73 194 111 71 206 117 75 207 122 81 208 123 82 207 119 69 194 111 71 196 117 76 202 121 78 220 133 88 213 146 104 196 134 97 161 118 86 139 111 87 143 122 103 126 117 108 118 122 121 136 133 124 155 135 124 150 158 147 157 167 176 151 161 173 134 146 160 115 133 153 109 129 153 117 138 159 150 170 195 158 178 202 168 189 210 171 192 211 165 177 199 147 162 185 144 159 182 138 158 183 131 151 178 122 143 170 135 159 185 126 152 179 133 158 188 137 162 192 119 154 176 128 158 168 167 174 182 
37 48 52 120 97 83 72 51 34 90 67 49 179 152 135 195 158 140 189 148 130 165 122 105 109 63 47 156 94 73 183 113 79 155 106 91 106 70 56 126 87 80 102 78 66 213 177 165 241 194 184 163 104 96 174 124 91 170 123 97 150 113 86 157 99 75 165 107 83 167 135 112 139 139 137 172 137 115 177 132 103 160 113 85 144 93 76 226 175 158 226 174 160 142 93 79 162 132 104 197 154 138 181 135 122 133 126 116 166 162 151 202 194 183 140 156 179 144 153 168 170 136 101 163 143 136 200 170 146 171 163 152 185 176 167 167 176 191 170 178 191 149 162 179 154 167 184 155 168 185 212 192 194 
29 40 44 53 43 34 45 32 16 87 66 49 179 156 138 192 163 145 199 162 144 177 135 119 112 66 50 121 84 65 116 79 61 113 84 80 63 40 34 53 41 29 72 50 37 163 131 120 249 205 194 206 152 142 132 68 58 129 81 67 145 92 74 126 69 50 134 79 59 143 88 68 191 133 111 132 84 62 120 75 52 85 65 56 129 82 64 210 163 147 193 161 146 179 131 117 222 194 173 237 194 178 215 169 154 135 87 73 93 89 80 127 120 110 160 152 141 207 171 139 182 150 125 135 103 78 185 123 72 192 122 86 225 169 132 196 167 149 198 188 179 215 191 165 198 179 172 202 188 188 228 158 99 
28 38 40 35 32 25 44 32 18 66 49 31 171 150 133 201 174 157 222 186 170 201 162 145 127 84 68 107 79 68 71 43 32 83 55 51 34 25 18 53 43 31 58 40 26 138 110 98 232 188 177 228 174 164 147 83 73 99 31 18 100 63 54 78 38 28 87 48 31 122 85 66 134 115 108 98 83 76 25 18 12 48 31 24 114 73 55 92 69 55 154 128 113 130 109 90 185 158 139 216 185 165 220 177 160 131 93 72 94 52 30 77 71 73 75 66 59 159 139 128 216 188 164 136 106 82 179 99 64 201 128 93 221 157 121 246 190 153 239 195 158 242 190 166 189 139 116 218 152 91 131 81 54 
30 40 42 37 38 33 34 26 13 56 40 24 125 106 89 154 128 111 182 149 132 185 146 129 122 80 64 112 83 75 39 14 7 19 9 7 22 15 7 41 33 22 56 40 27 142 116 103 235 191 180 243 189 177 154 92 79 102 34 21 82 33 36 65 19 19 58 21 5 113 76 58 71 54 47 131 113 101 75 58 50 62 53 46 72 65 55 64 45 31 50 33 17 102 81 62 164 139 119 213 182 162 209 174 154 136 100 78 74 38 14 107 89 79 75 70 66 104 85 71 191 169 158 185 160 138 153 128 106 183 158 138 220 199 178 209 151 114 234 182 145 255 198 169 213 157 130 168 114 90 129 82 54 
50 49 44 55 54 50 33 35 32 44 31 15 66 52 43 164 144 133 223 195 181 218 185 166 159 121 100 93 52 30 104 87 71 29 15 12 14 17 8 32 32 20 65 54 36 147 123 99 229 187 163 226 170 147 156 85 63 111 34 14 107 44 35 68 25 18 87 43 32 128 91 73 127 102 80 124 106 84 134 108 91 129 112 86 148 136 122 25 16 19 43 25 11 77 56 39 147 122 102 216 188 167 220 189 168 153 121 98 76 44 21 121 103 79 95 89 77 82 68 59 118 104 91 153 143 134 174 157 139 211 195 179 249 227 206 155 133 110 195 136 102 222 166 131 214 151 120 159 100 70 129 82 54 
68 61 53 54 44 35 47 40 32 37 24 16 69 55 46 164 142 129 205 177 163 209 176 157 188 150 129 120 79 57 106 89 71 39 25 22 7 2 0 23 23 11 57 46 28 147 123 99 243 198 175 227 169 145 162 90 66 131 55 32 117 53 44 86 42 33 115 69 54 134 97 71 137 111 88 142 111 91 120 93 74 142 117 87 150 134 119 47 40 32 46 29 21 53 32 15 125 103 82 214 187 166 224 196 174 166 138 114 166 153 134 94 89 70 94 95 81 63 64 58 62 57 61 100 93 87 191 166 146 207 182 160 250 226 202 158 136 112 182 157 135 129 104 84 182 107 68 168 104 76 143 96 68 
79 71 60 66 54 42 49 40 31 39 26 18 62 45 35 142 120 107 182 153 137 204 169 150 213 175 154 152 110 88 95 50 27 51 40 36 9 3 3 16 16 4 54 43 25 154 130 104 250 204 178 221 161 135 163 89 64 148 68 43 142 70 58 100 52 42 155 103 82 136 103 86 91 58 41 80 42 29 132 101 81 151 124 95 153 133 109 86 76 66 35 31 30 31 9 0 102 79 61 202 177 155 186 154 139 222 195 176 191 178 159 119 114 95 85 89 75 78 69 72 69 69 69 109 99 89 151 125 108 173 142 121 226 189 162 226 189 160 209 183 160 122 97 75 128 89 60 113 81 70 140 94 61 
106 88 74 80 66 55 55 42 33 39 30 23 45 28 18 104 82 69 156 127 111 193 156 138 219 178 158 175 130 109 106 61 38 62 51 47 10 4 4 13 13 1 56 45 27 167 141 116 246 199 171 210 149 121 157 82 53 147 58 40 125 42 26 124 63 44 137 109 85 84 67 49 115 71 58 131 90 72 146 114 93 170 152 130 138 121 103 89 71 57 55 47 44 66 49 39 97 74 56 90 56 46 172 140 127 229 202 185 222 207 188 148 141 123 79 83 69 84 55 37 97 72 65 79 68 62 89 69 58 148 120 108 197 159 146 234 193 165 226 200 177 120 95 73 119 78 60 138 104 77 137 91 58 
138 106 81 112 87 67 84 65 50 68 49 42 74 47 40 80 56 44 122 90 75 164 125 108 210 167 148 188 143 122 120 73 53 70 56 53 11 6 3 8 10 0 53 42 24 169 143 118 245 198 170 208 147 118 158 81 51 160 69 51 121 51 39 141 105 79 115 92 76 132 59 50 162 138 110 173 154 137 146 129 113 102 86 71 54 40 29 27 31 30 65 69 68 61 63 62 27 29 26 76 46 36 144 114 103 214 186 172 241 225 209 185 178 160 84 86 73 91 62 44 121 89 68 127 95 80 53 36 28 93 66 57 156 120 108 228 186 170 209 171 148 169 140 110 137 102 72 118 79 64 156 100 65 
135 103 78 153 121 100 138 77 56 89 55 45 100 60 48 104 62 48 92 58 46 128 89 72 191 145 129 187 140 122 122 75 55 71 56 51 14 6 4 4 6 0 46 35 17 159 133 108 248 201 173 190 129 101 131 54 28 115 51 42 151 100 79 175 145 117 81 32 27 114 98 85 116 102 89 73 59 48 48 35 26 21 10 4 39 45 43 162 168 166 208 214 212 184 190 190 138 144 144 46 50 51 99 73 60 165 139 124 234 217 201 225 216 201 117 115 103 61 66 60 94 62 39 118 90 79 90 68 57 71 50 45 126 93 86 175 137 124 182 147 128 183 149 122 158 127 96 114 84 50 162 104 66 
136 104 79 158 126 103 70 52 30 161 112 80 125 74 53 137 90 64 129 84 61 142 107 75 156 110 94 161 114 96 118 102 79 68 50 46 13 2 0 7 8 0 68 59 44 154 128 105 226 180 154 178 120 96 138 70 51 145 96 79 174 140 112 123 108 87 42 36 24 39 26 20 31 20 14 13 4 0 12 4 1 22 28 28 129 135 135 210 215 218 222 227 230 219 224 228 210 215 219 182 186 189 122 125 130 107 85 71 184 166 154 223 211 199 154 147 139 63 62 58 95 64 36 115 81 53 124 95 79 80 58 45 63 43 42 102 73 65 161 130 112 226 192 167 175 142 111 108 75 42 169 110 70 
151 116 88 163 131 106 78 60 36 12 1 0 91 64 45 172 130 106 158 125 92 156 127 95 156 138 118 140 127 118 102 92 82 83 63 56 45 27 23 11 12 4 114 106 93 206 185 166 229 188 168 220 169 152 142 80 69 154 120 95 192 170 149 106 94 72 12 4 2 25 22 31 56 23 18 29 14 21 0 2 5 72 77 80 195 200 204 201 208 214 183 190 198 191 198 206 198 205 215 204 208 217 211 215 224 160 164 173 118 100 90 161 147 138 174 165 158 103 98 95 117 82 52 165 130 98 152 116 94 120 91 75 80 62 50 65 45 38 106 78 64 212 180 157 213 178 150 147 112 80 176 117 75 
154 117 88 165 130 110 59 36 20 10 1 0 28 20 18 55 30 33 71 58 39 170 147 129 151 134 118 112 98 85 27 20 12 71 58 50 82 63 57 24 27 20 163 157 145 232 213 196 229 193 179 188 144 135 147 122 102 201 172 138 192 169 151 99 87 65 7 0 1 62 59 68 109 106 117 22 16 20 20 28 31 141 149 152 211 218 224 183 190 200 181 189 200 186 194 205 179 187 200 165 173 186 180 188 201 159 167 180 96 102 116 97 80 72 184 171 165 161 151 150 130 98 75 205 169 135 208 170 134 151 116 96 109 87 73 51 40 34 45 22 8 174 142 121 202 165 139 133 94 65 183 122 78 
151 114 85 173 138 119 64 41 27 13 0 0 0 4 4 58 60 55 44 46 41 64 32 33 88 74 63 53 40 31 14 7 1 30 23 17 95 84 78 44 47 40 200 193 183 213 195 183 177 143 133 176 138 117 180 135 112 215 178 149 191 168 150 98 86 64 8 0 2 28 30 29 98 98 108 86 102 115 83 93 95 201 210 215 181 194 202 177 187 197 185 195 207 167 176 191 145 154 169 140 148 167 110 118 137 104 113 130 59 48 44 107 83 83 124 106 102 147 120 99 206 178 154 197 164 131 220 197 183 193 173 162 105 79 66 116 96 89 55 45 44 128 97 77 185 135 112 171 117 83 191 129 82 
152 113 80 156 126 98 95 72 56 16 0 0 22 17 11 123 110 94 90 73 55 65 27 26 76 38 37 33 24 25 30 20 19 22 19 14 44 33 27 85 66 62 174 151 143 146 114 103 134 88 75 106 53 37 158 112 89 208 168 142 187 165 144 100 88 66 9 0 1 16 15 10 71 69 74 92 82 83 81 99 109 166 181 188 142 156 167 139 153 166 151 163 177 113 125 141 95 106 124 102 113 133 95 108 127 63 76 92 51 38 32 92 77 74 122 100 79 173 147 124 226 198 174 226 205 184 250 233 226 221 203 193 117 93 81 124 95 79 82 60 47 147 96 75 207 157 134 201 151 124 180 125 84 
155 116 83 171 141 115 110 84 67 25 5 0 28 24 15 142 126 111 144 123 104 54 37 21 62 28 26 79 37 38 40 20 13 58 16 17 81 20 27 96 47 40 84 65 67 79 35 26 98 43 40 102 46 31 133 85 63 195 153 128 187 165 142 107 92 73 104 91 82 118 108 96 61 23 14 121 54 38 131 74 63 81 101 108 99 113 126 95 111 126 94 109 128 103 99 88 126 100 83 149 117 104 107 103 104 67 82 87 83 70 54 121 112 105 151 139 127 191 159 138 219 197 174 214 205 196 240 225 220 236 217 210 135 111 99 123 94 76 121 87 62 159 105 69 186 136 111 193 140 100 207 159 110 
154 115 82 170 125 92 131 104 83 48 26 13 42 35 25 153 136 120 184 157 136 100 77 59 40 24 11 46 21 17 61 26 24 81 27 27 112 56 55 118 67 63 120 71 64 100 49 45 87 37 36 103 40 35 112 61 42 120 54 38 177 122 102 212 193 176 217 195 174 149 137 123 9 6 0 61 40 35 123 50 41 130 77 63 79 62 55 105 97 84 135 129 113 87 63 53 89 59 49 128 96 83 176 144 131 184 174 175 121 116 112 188 178 169 189 168 147 202 181 160 165 138 121 206 188 166 229 220 213 241 224 216 198 176 163 214 188 173 101 68 49 132 94 71 172 118 84 181 127 91 207 159 110 
151 113 77 164 123 93 155 125 101 82 56 39 55 47 36 160 141 124 188 160 136 146 119 98 101 82 67 14 5 0 32 17 12 63 13 12 101 45 46 129 71 70 139 84 81 116 58 56 74 19 16 90 35 40 102 34 35 109 46 29 117 58 40 233 183 160 211 189 166 166 153 137 23 19 8 13 4 9 74 38 40 101 54 34 23 13 4 124 112 100 149 141 128 65 51 51 71 41 31 108 74 64 163 129 117 203 174 160 168 156 140 217 199 185 228 205 191 191 164 147 152 125 108 183 157 142 185 171 158 231 220 214 255 235 224 236 210 195 130 97 78 134 98 76 161 107 73 180 126 90 208 160 111 
157 117 82 173 132 110 175 139 115 115 84 63 60 52 39 168 147 128 178 152 129 176 146 122 156 135 118 28 18 9 43 15 11 44 0 1 80 28 30 108 52 55 121 59 62 115 51 52 74 9 15 76 37 42 91 30 35 111 42 35 103 42 24 216 166 141 202 178 154 179 164 145 44 38 26 10 6 0 37 26 30 41 31 22 91 78 69 172 160 146 191 182 167 68 62 46 51 32 38 94 60 48 148 115 98 194 165 149 216 188 174 221 207 206 247 210 194 194 151 134 148 110 91 167 139 118 185 160 140 216 200 187 242 223 209 255 229 214 169 138 120 122 86 64 163 109 75 184 130 94 208 160 111 
166 126 90 174 128 102 181 141 115 143 108 86 61 51 39 164 142 121 194 166 144 185 153 130 167 144 128 44 31 23 52 21 19 35 0 0 66 20 23 92 42 45 110 53 59 107 44 52 77 16 23 62 31 37 58 29 34 94 33 30 98 40 26 177 127 102 218 173 142 192 175 155 124 108 93 7 0 0 24 15 6 107 95 83 177 163 150 190 177 161 205 193 177 93 86 70 58 25 20 94 61 46 125 90 71 176 145 127 223 196 179 214 199 194 235 197 178 174 132 110 158 117 97 146 109 90 144 111 92 176 147 129 204 179 159 255 233 218 181 150 132 117 81 59 161 107 71 183 129 93 208 160 111 
169 130 91 167 121 88 171 127 100 108 73 51 66 54 42 167 142 120 198 168 144 191 159 136 145 119 104 42 25 18 20 6 5 30 0 2 59 20 23 84 42 46 106 57 63 105 52 60 75 22 30 57 30 37 48 23 19 59 27 14 89 43 27 162 120 96 220 177 145 207 185 161 142 125 109 69 42 33 60 47 38 168 152 139 213 195 181 182 166 150 189 176 160 112 103 86 16 8 5 78 46 23 111 76 56 160 128 107 209 181 160 187 171 158 198 158 133 127 83 58 151 106 85 118 77 55 100 64 42 143 111 90 195 164 143 222 187 167 195 164 146 125 88 69 155 101 67 196 144 104 208 160 111 
167 128 89 162 123 84 157 111 85 161 126 98 70 58 46 182 155 134 193 157 133 203 168 148 122 94 82 23 4 0 25 11 11 26 1 4 54 22 25 79 44 48 102 61 67 104 57 65 70 23 31 44 24 25 31 2 0 84 52 39 162 131 113 186 149 122 231 196 164 212 186 159 166 140 125 52 29 21 97 83 72 195 177 163 193 174 159 191 174 156 201 185 169 107 98 81 17 7 5 65 49 34 110 77 46 160 126 99 162 141 120 144 126 106 153 114 85 129 86 54 127 85 60 98 58 32 93 57 31 147 115 90 207 177 151 235 209 182 213 176 149 153 118 88 166 112 74 198 145 105 209 161 112 
169 127 87 178 129 97 175 124 93 74 61 45 62 52 42 174 149 127 198 166 143 193 157 135 92 67 47 94 51 44 66 32 22 23 11 13 49 30 32 76 51 54 85 59 60 74 48 49 56 27 29 37 12 7 59 32 21 126 98 77 201 174 147 206 173 140 182 166 143 133 117 101 147 128 111 106 89 73 134 116 102 206 187 170 181 160 141 195 179 163 151 137 124 16 6 0 28 0 0 124 102 91 165 130 108 123 94 64 122 98 72 115 89 62 179 152 123 181 140 110 126 80 54 96 57 28 122 87 59 184 150 122 230 199 171 237 200 171 254 220 185 200 162 126 166 118 82 192 139 99 211 167 122 
177 135 95 175 121 85 179 139 114 97 84 67 42 32 20 165 143 120 191 155 133 180 145 125 73 47 30 49 25 15 14 13 9 22 18 17 43 33 32 60 46 45 59 45 44 48 33 30 42 21 16 32 8 0 94 67 50 180 152 128 200 167 132 186 166 142 146 131 112 84 72 58 38 26 14 140 123 107 195 175 151 205 184 165 195 173 150 188 175 159 95 83 71 18 8 0 103 50 44 148 128 117 200 165 145 182 144 123 128 93 65 134 105 75 168 131 102 167 128 99 141 109 88 148 112 88 162 125 98 219 183 157 179 152 123 213 176 147 238 202 168 253 210 175 164 122 84 199 148 105 212 168 123 
180 137 95 173 129 90 172 131 103 104 88 72 23 13 1 131 110 89 192 164 140 167 134 115 53 32 15 49 17 2 22 13 4 15 10 4 32 31 27 39 35 32 30 27 22 20 15 11 36 14 3 61 38 22 147 121 98 210 181 151 198 178 153 145 128 108 82 70 56 30 23 13 59 46 37 165 148 132 184 164 140 194 172 148 200 178 155 152 140 128 30 20 10 62 23 16 121 63 52 125 103 92 198 178 167 169 126 107 122 76 53 137 101 77 106 71 51 92 65 54 118 92 79 171 148 134 205 177 155 226 200 177 148 122 95 181 151 123 221 191 157 255 234 196 220 180 144 194 140 96 211 168 123 
174 131 89 182 129 89 169 126 94 74 58 42 16 12 1 76 57 40 167 143 117 161 132 114 43 24 10 25 6 0 28 15 0 13 4 0 9 0 1 21 22 17 13 12 7 26 6 0 34 12 0 132 105 86 197 170 143 194 172 148 159 142 122 82 69 52 21 15 3 6 0 0 85 72 63 164 146 132 169 151 127 203 183 158 186 166 142 88 79 70 7 0 0 75 32 25 74 47 36 93 74 60 180 162 150 148 103 82 106 65 43 55 22 5 80 47 30 89 71 57 111 93 79 157 139 125 191 175 160 221 198 182 156 138 126 179 154 134 207 183 159 217 191 166 254 224 186 182 142 107 209 166 121 
172 129 86 181 128 84 157 114 80 34 18 3 17 13 4 35 17 3 143 121 97 156 130 113 36 20 7 113 51 38 97 80 62 52 42 32 25 16 9 23 10 1 21 14 8 39 17 3 85 60 40 186 158 134 218 187 158 197 176 155 92 76 60 32 22 10 3 0 0 21 12 5 118 105 96 163 147 131 178 160 136 201 183 159 132 114 94 26 19 13 4 1 0 35 10 5 116 52 42 75 56 39 173 157 142 248 219 203 173 131 106 111 78 59 45 22 8 60 47 31 84 72 58 133 121 109 168 156 144 204 190 181 211 196 189 120 98 84 153 130 112 188 166 145 225 203 180 219 193 160 208 167 121 
177 134 91 176 124 77 143 100 65 21 5 0 20 13 5 21 4 0 129 109 85 151 128 110 30 16 3 67 34 19 134 80 56 151 138 122 110 96 83 74 58 43 39 21 17 86 61 41 158 130 108 193 162 134 199 174 152 169 148 129 32 20 8 14 5 0 8 3 0 54 45 36 154 141 132 174 158 142 191 175 150 164 149 128 61 45 30 62 50 34 39 27 13 32 22 12 64 32 21 72 56 33 167 152 131 223 214 197 222 180 155 179 149 125 116 94 73 50 33 15 60 46 35 102 88 79 134 120 111 185 168 161 201 183 179 130 111 107 92 70 56 138 115 99 186 163 145 216 194 173 209 168 122 
177 134 91 178 127 80 139 99 63 34 18 3 17 12 6 20 2 2 119 98 77 153 132 113 36 24 10 76 40 24 170 80 69 206 173 140 204 187 167 180 158 144 140 118 105 74 57 47 199 168 140 207 177 151 190 165 145 114 95 78 17 4 0 9 9 7 18 13 7 101 92 83 184 172 160 175 162 145 175 160 137 96 83 64 48 36 24 158 138 114 152 131 110 83 48 29 79 44 25 73 42 24 137 123 97 196 185 163 233 226 208 203 160 126 181 160 133 123 106 80 66 50 25 73 59 48 85 68 60 134 117 109 171 152 145 135 115 108 75 55 48 150 118 95 133 107 92 192 166 149 216 176 127 
171 128 85 187 136 89 145 107 70 50 34 19 8 4 0 14 0 0 108 90 70 161 140 121 47 35 21 90 53 37 141 74 58 188 86 64 187 166 139 205 179 166 224 199 179 174 158 135 185 155 127 216 186 162 182 160 139 71 52 37 28 17 11 20 16 15 31 26 20 139 130 121 199 187 175 166 153 134 142 130 106 40 28 12 84 70 57 181 164 146 141 103 80 142 104 81 138 102 80 135 103 82 134 102 81 153 141 117 221 213 192 243 223 199 216 171 130 183 166 136 168 144 116 118 94 66 81 57 33 83 65 53 115 97 85 111 91 80 86 52 43 102 67 45 138 104 79 190 157 124 216 176 127 
174 127 85 177 129 93 164 130 95 65 49 33 19 15 6 18 1 0 113 85 61 174 147 120 59 38 17 89 47 35 134 68 52 168 78 43 214 141 98 209 177 152 208 184 160 199 184 161 212 173 132 158 134 110 116 100 84 55 43 31 14 10 1 11 0 0 106 91 86 156 136 127 199 177 166 159 141 129 49 37 25 59 42 26 142 120 99 157 130 113 133 101 63 211 171 135 212 172 136 215 176 143 140 99 79 114 88 65 185 160 138 228 206 183 228 200 176 210 172 133 211 181 147 203 168 126 176 141 103 133 97 63 130 91 76 70 33 24 64 27 18 90 49 29 140 103 76 205 172 137 214 174 125 
176 129 87 177 129 89 165 129 95 67 51 26 16 10 0 45 27 15 137 107 79 182 152 124 70 48 27 85 46 31 137 71 55 177 89 53 218 147 103 222 170 120 211 189 165 212 165 119 201 161 126 159 125 90 143 128 109 136 126 116 14 9 3 32 23 18 121 106 99 200 180 173 179 156 148 83 65 55 23 13 3 37 21 6 102 86 71 77 51 36 102 75 48 187 149 104 206 167 128 217 177 152 112 74 53 138 107 86 145 114 96 190 159 139 173 145 124 209 181 160 255 230 202 198 165 130 211 172 131 196 155 133 113 76 60 74 36 23 35 0 0 97 52 29 160 124 92 208 173 141 215 175 126 
178 131 89 181 129 92 171 132 99 88 71 43 8 0 0 92 71 52 171 138 107 192 161 132 91 64 43 80 41 26 136 73 55 171 94 68 220 156 110 199 172 151 151 129 115 186 144 104 134 99 57 103 73 37 137 111 86 116 109 91 15 12 5 49 40 33 146 131 124 199 180 174 111 90 85 21 4 0 23 11 0 87 68 51 70 54 39 80 43 35 96 72 48 165 129 93 200 161 118 199 159 133 119 79 54 86 48 27 107 75 60 156 124 109 116 87 71 178 149 131 241 213 192 232 201 173 197 163 125 186 146 121 176 135 113 143 102 82 105 64 44 120 75 46 229 207 170 195 161 123 217 177 128 
179 132 88 176 124 85 177 136 104 102 81 60 26 16 7 140 115 93 195 160 128 199 166 135 115 87 65 70 33 15 128 70 48 166 92 65 193 118 78 134 112 98 53 36 20 139 96 61 143 110 75 184 157 127 160 143 127 84 74 62 0 3 0 75 68 58 169 156 150 137 118 114 38 19 15 15 6 0 84 68 53 106 84 61 8 0 0 50 2 0 53 24 18 147 112 80 194 153 107 201 162 131 142 102 76 133 97 63 93 57 41 92 59 44 100 68 53 139 107 92 219 188 170 243 212 184 204 171 138 211 162 122 132 98 53 151 119 78 201 157 130 228 202 165 229 206 174 205 171 134 218 178 129 
184 137 91 180 124 87 184 128 93 102 81 64 70 53 35 175 147 123 201 165 133 200 167 136 140 110 84 30 13 0 121 63 41 166 90 54 198 126 86 219 167 120 195 140 120 180 146 111 201 172 142 182 158 134 130 109 92 19 10 1 0 5 0 103 96 88 148 137 131 67 52 49 13 0 0 64 52 40 140 121 106 93 70 56 19 4 0 37 0 0 81 38 29 115 79 55 145 94 67 184 128 91 207 153 107 178 140 101 93 57 31 100 64 48 113 80 65 115 82 67 194 163 145 235 204 186 204 173 152 189 149 100 126 88 41 107 70 28 147 109 72 208 173 141 228 193 163 212 178 141 218 178 129 
177 129 83 181 125 90 185 135 102 185 142 110 140 118 97 123 108 87 197 164 133 201 166 134 157 126 98 41 20 0 55 17 0 162 91 63 201 132 93 193 176 130 160 145 116 184 153 125 127 101 74 60 38 17 18 0 0 28 16 0 10 11 6 83 78 72 73 63 61 21 10 8 9 0 0 68 54 45 159 137 116 143 114 96 69 49 38 71 22 8 105 44 26 66 47 30 104 80 52 175 123 84 212 153 109 194 156 117 124 89 61 86 50 24 101 69 30 101 70 52 167 136 116 153 122 101 182 152 128 211 170 118 161 119 69 115 72 29 113 69 30 181 136 105 214 170 141 203 171 122 218 178 129 
189 138 93 183 133 98 193 147 114 196 157 128 147 111 87 76 58 44 110 89 68 201 158 126 187 146 118 69 39 11 82 49 34 173 78 58 182 101 71 167 149 113 67 51 25 65 36 18 25 0 0 32 11 6 68 52 39 144 132 118 88 85 78 36 31 28 18 10 8 8 1 0 58 43 36 132 113 99 136 106 80 168 123 100 140 112 98 130 99 81 52 26 13 54 40 37 95 64 43 153 101 61 197 138 94 207 149 99 167 131 97 130 96 50 105 72 31 91 58 23 112 81 52 155 125 97 199 169 143 203 170 127 203 157 107 153 104 61 128 75 35 150 99 68 205 152 121 238 189 159 218 178 129 
195 144 97 182 136 102 198 157 125 180 144 118 104 72 51 61 38 20 143 117 92 199 166 135 178 134 109 59 25 0 118 49 33 172 73 54 196 97 74 187 144 110 68 41 12 50 20 10 72 45 26 148 122 105 183 161 147 141 125 112 86 76 66 56 47 48 6 3 0 39 29 19 143 125 113 131 96 76 144 101 84 178 128 103 168 121 93 153 116 90 96 64 43 20 7 1 86 48 29 122 83 52 174 99 60 219 156 113 215 178 126 183 149 103 120 87 46 91 58 23 98 67 38 101 71 43 190 160 136 219 189 165 221 174 122 198 145 101 142 87 48 128 71 41 212 157 127 248 197 168 218 178 129 
185 134 87 198 155 120 195 159 127 147 115 92 63 34 16 81 56 36 196 163 130 207 169 133 183 138 115 58 22 0 93 52 34 160 67 52 202 102 79 196 157 124 85 64 37 61 38 32 104 58 32 170 143 124 119 96 80 60 41 27 44 36 25 101 89 89 57 43 34 120 102 88 125 83 67 86 54 41 102 61 67 179 128 101 182 122 88 176 135 107 119 84 64 25 8 0 78 25 19 61 22 15 146 84 61 202 134 89 208 152 105 199 165 119 148 115 74 103 70 37 88 57 28 88 58 32 157 127 103 219 189 165 212 179 138 210 170 121 145 104 60 118 74 39 177 134 100 238 195 163 215 179 131 
192 141 94 184 144 108 163 129 102 97 68 50 33 10 0 100 75 55 211 176 144 208 166 128 206 163 129 64 27 8 104 61 44 165 64 46 224 143 116 190 157 124 89 72 46 13 5 2 55 35 24 139 94 65 73 44 26 66 43 27 107 89 75 84 66 52 92 72 61 144 97 79 99 59 47 83 52 50 87 51 35 139 92 74 184 130 106 180 136 109 138 102 80 113 80 65 91 64 47 29 1 0 122 74 64 177 102 70 226 166 116 212 176 128 179 146 105 122 89 56 85 54 26 86 56 30 122 94 72 176 145 124 226 196 158 213 175 126 158 117 73 119 76 41 169 126 92 231 188 156 215 179 131 
204 152 105 184 151 120 101 73 51 47 25 11 21 6 1 104 81 63 207 174 141 197 155 117 197 159 122 187 144 125 111 68 52 188 96 73 219 142 114 187 158 124 81 67 40 3 0 0 31 1 0 99 63 49 155 104 75 129 98 78 130 102 81 30 38 25 86 56 54 80 60 51 53 34 30 75 44 42 69 38 35 109 67 51 179 125 99 148 96 74 173 122 95 179 144 122 115 88 69 35 8 0 55 10 4 137 76 58 195 116 73 203 156 102 200 165 123 145 111 76 115 81 53 101 70 42 86 58 34 148 120 98 218 190 168 200 172 135 173 135 90 119 76 41 152 109 75 217 174 142 214 178 130 
198 144 97 153 122 94 51 26 6 19 1 0 16 1 0 100 77 59 197 164 133 207 163 118 200 165 127 143 105 86 54 21 4 162 71 52 218 144 115 181 155 118 79 68 40 46 24 11 78 42 30 145 103 87 175 125 102 168 127 99 94 58 34 46 21 16 104 70 68 97 56 50 42 36 38 47 43 40 70 32 31 96 60 48 84 51 44 118 70 56 149 97 73 179 126 92 133 105 83 45 18 1 55 8 2 128 74 62 168 87 58 215 143 93 230 170 116 191 156 118 136 103 70 97 63 35 74 47 20 119 91 67 202 174 152 224 199 168 214 173 129 121 78 43 133 90 56 226 185 141 211 173 124 
188 129 87 84 55 41 25 11 2 15 4 8 11 0 0 75 55 48 181 154 137 190 151 112 184 141 107 78 46 25 63 29 28 126 63 48 182 101 74 170 142 105 89 78 50 39 15 3 137 98 83 187 142 123 160 111 79 121 77 48 105 73 50 141 118 100 110 77 72 98 64 62 99 60 43 90 76 75 76 57 51 81 51 40 48 30 26 88 42 27 135 82 66 161 110 81 151 121 95 63 32 11 54 3 0 128 70 58 160 93 76 191 106 85 240 162 123 211 169 109 165 131 96 101 68 35 79 49 21 104 77 50 195 167 145 238 213 191 216 175 131 159 119 83 182 139 107 215 174 142 211 171 120 
193 134 92 169 126 107 28 15 7 15 14 10 18 3 0 84 64 55 182 153 135 215 168 126 145 106 75 51 22 4 36 20 20 84 43 37 122 69 55 151 91 67 133 106 79 55 42 26 121 80 48 189 137 100 152 105 79 107 71 49 145 114 94 122 103 89 44 34 25 63 45 43 105 72 65 85 50 48 131 66 46 82 52 41 64 46 42 52 27 20 128 76 62 124 71 57 170 139 111 87 56 28 139 82 62 124 65 51 139 69 57 165 86 73 189 108 81 167 94 61 190 154 118 113 80 45 93 63 35 107 77 51 199 171 149 243 216 189 226 202 164 211 168 126 163 118 79 192 153 122 194 151 100 
196 137 93 151 112 95 39 15 5 15 17 14 23 6 0 96 72 60 187 157 133 205 162 120 97 62 32 28 5 0 31 6 9 51 16 12 77 31 18 117 62 41 163 103 69 78 61 45 116 80 44 186 131 90 154 103 72 129 81 58 138 109 91 87 68 54 67 35 22 71 47 37 52 35 28 71 30 28 96 37 23 143 67 35 56 38 34 37 14 6 46 27 23 122 74 60 175 112 71 194 130 102 183 126 106 77 28 14 91 38 30 112 63 56 118 66 55 147 76 46 163 84 69 162 124 88 111 69 31 113 75 38 186 150 116 251 224 194 236 214 177 217 191 156 173 143 105 167 118 77 194 151 100 
194 136 90 168 132 116 47 27 18 6 0 0 37 19 9 117 90 73 194 160 132 186 144 104 67 37 9 23 5 0 23 15 12 36 21 16 40 4 0 76 28 6 120 66 32 116 91 71 111 78 43 183 132 87 162 108 72 129 81 67 106 84 71 47 31 18 40 22 18 17 1 2 12 0 0 17 2 0 69 46 40 162 103 73 126 88 65 39 11 7 40 19 18 134 83 62 156 93 58 187 124 93 206 149 129 79 30 16 79 36 30 57 33 21 65 28 22 102 51 47 152 73 60 197 152 111 130 86 47 85 45 9 152 116 82 234 207 180 255 244 211 231 206 175 177 149 112 179 130 87 192 148 99 
200 142 92 179 129 96 72 54 44 30 17 11 90 68 55 158 127 106 198 159 126 164 126 87 57 31 4 25 11 0 46 32 23 88 69 54 87 62 40 68 26 4 132 79 45 132 109 101 139 98 78 126 78 64 115 86 72 114 59 29 161 109 72 127 99 77 125 97 75 116 88 66 114 88 65 111 85 62 113 82 61 65 37 25 102 52 25 34 17 10 44 20 16 93 64 58 145 86 68 182 116 81 200 140 114 143 97 74 111 77 52 37 11 0 50 15 9 105 59 46 164 102 89 192 124 79 149 105 68 77 37 1 121 85 51 206 178 154 255 236 209 246 225 194 193 150 108 205 155 104 184 140 93 
193 135 87 160 127 96 73 48 26 46 24 11 153 127 110 202 167 139 204 160 111 150 116 78 49 29 4 69 51 37 125 104 87 91 59 38 115 80 58 114 82 59 72 44 30 77 57 50 158 103 72 114 61 30 89 61 49 108 76 55 129 85 48 186 137 104 178 138 113 188 151 124 203 166 139 193 156 130 161 107 69 96 52 23 90 40 13 90 40 13 68 45 39 103 72 67 133 96 87 168 112 65 177 114 79 153 109 84 145 108 81 48 21 2 64 36 15 95 56 39 166 108 94 177 113 67 172 128 91 92 52 17 89 53 19 169 141 119 242 218 194 205 175 147 144 118 95 185 155 127 185 141 94 
61 41 30 143 107 83 59 38 19 33 11 0 125 93 68 192 152 117 134 117 91 160 131 97 117 88 72 137 110 91 145 109 75 116 70 47 115 87 73 126 100 85 133 107 92 107 81 68 103 77 64 89 63 50 106 80 67 142 111 90 171 140 119 172 141 120 190 163 144 169 140 122 172 127 98 153 101 62 113 90 76 139 94 65 168 119 89 114 87 68 120 79 51 140 113 94 127 98 80 178 148 122 186 154 143 193 160 151 142 112 102 131 100 69 82 55 26 74 52 28 161 108 94 122 71 54 189 127 104 112 72 37 119 79 44 140 112 91 186 155 126 116 88 74 84 59 52 84 59 39 155 113 88 
58 40 30 54 37 27 52 38 27 74 45 31 70 41 23 106 67 50 104 75 57 157 128 110 158 129 111 166 139 122 158 131 114 131 103 89 155 129 114 167 141 126 172 149 135 147 124 110 173 150 136 156 133 119 132 105 86 139 111 89 148 120 98 138 111 92 176 149 130 130 103 86 146 120 107 141 118 104 161 138 124 118 95 81 143 117 100 149 123 106 137 110 93 147 114 95 152 124 100 146 116 105 160 130 120 151 121 111 132 103 95 124 92 67 154 127 108 173 146 127 140 113 96 167 140 123 162 135 118 131 102 84 146 117 99 146 119 110 147 120 111 157 129 118 132 102 91 140 98 73 141 99 74 
